<?xml version="1.0"?>
<svg xmlns="http://www.w3.org/2000/svg" height="512px" viewBox="0 -48 480 480" width="512px"><path d="m427.199219 152h-43.199219v-24c0-13.601562-10.398438-24-24-24h-80v16h80c4.800781 0 8 3.199219 8 8v88h-88v16h184v48c0 4.800781-3.199219 8-8 8h-24.800781c-4.800781-21.601562-25.597657-35.199219-47.199219-31.199219-15.199219 3.199219-28 15.199219-31.199219 31.199219h-72.800781v16h72.800781c4 21.601562 25.597657 36 47.199219 31.199219 16-3.199219 28-15.199219 31.199219-31.199219h24.800781c13.601562 0 24-10.398438 24-24v-75.199219zm-35.199219 168c-13.601562 0-24-10.398438-24-24s10.398438-24 24-24 24 10.398438 24 24-10.398438 24-24 24zm-8-104v-48h36.800781l43.199219 43.199219v4.800781zm0 0" fill="#ff9800"/><path d="m378.417969 298.261719 15.839843-15.839844 11.3125 11.316406-15.835937 15.839844zm0 0" fill="#ff9800"/><path d="m328 40c0-22.398438-17.601562-40-40-40h-188c-24 0-44 20-44 44v268h-56v28c0 24 20 44 44 44h180c22.398438-2.398438 40-20.800781 40-44v-252h64zm-312 300v-12h160v12c0 10.398438 3.199219 20 10.398438 28h-142.398438c-15.199219 0-28-12.800781-28-28zm232-300v300c0 15.199219-12.800781 28-28 28s-28-12.800781-28-28v-28h-120v-268c0-15.199219 12.800781-28 28-28h156c-4.800781 7.199219-8 15.199219-8 24zm64 32h-48v-32c0-13.601562 10.398438-24 24-24s24 10.398438 24 24zm0 0" fill="#ff9800"/><path d="m128 40h64v16h-64zm0 0" fill="#ff9800"/><path d="m96 72h128v16h-128zm0 0" fill="#ff9800"/><path d="m96 112h128v16h-128zm0 0" fill="#ff9800"/><path d="m96 152h128v16h-128zm0 0" fill="#ff9800"/><path d="m96 192h128v16h-128zm0 0" fill="#ff9800"/><path d="m96 272h32v16h-32zm0 0" fill="#ff9800"/><path d="m144 272h32v16h-32zm0 0" fill="#ff9800"/><path d="m192 272h32v16h-32zm0 0" fill="#ff9800"/><path d="m96 232h128v16h-128zm0 0" fill="#ff9800"/></svg>
