<svg height="512pt" viewBox="0 0 512 512.00002" width="512pt" xmlns="http://www.w3.org/2000/svg"><path d="m321.914062 429.058594h30v82.941406h-30zm0 0" fill="#e1e1e3"/><path d="m375.609375 429.058594h30v82.941406h-30zm0 0" fill="#e1e1e3"/><path d="m429.3125 429.058594h30v82.941406h-30zm0 0" fill="#c8c6cd"/><path d="m267.199219 429.058594h30v82.941406h-30zm0 0" fill="#e1e1e3"/><path d="m482 429.058594h30v82.941406h-30zm0 0" fill="#c8c6cd"/><path d="m389.601562 429.058594h16.007813v82.941406h-16.007813zm0 0" fill="#c8c6cd"/><path d="m374.601562 0h30v327.5h-30zm0 0" fill="#006dff"/><path d="m389.601562 0h15v327.5h-15zm0 0" fill="#0050c0"/><path d="m249.238281 231.03125-18.328125 191.660156-2.871094 30-5.667968 59.308594h-184l-5.671875-59.308594-2.871094-30-18.328125-191.660156zm0 0" fill="#006dff"/><path d="m249.238281 231.03125-18.328125 191.660156-2.871094 30-5.667968 59.308594h-92v-280.96875zm0 0" fill="#0050c0"/><path d="m512 351.261719v91.097656h-244.800781v-90.988281l35.390625-38.871094h173.230468zm0 0" fill="#ffa900"/><path d="m0 231.03125h260.738281v30h-260.738281zm0 0" fill="#e1e1e3"/><path d="m193.179688 260.25c0 .261719 0 .519531-.007813.78125-.410156 34.277344-28.433594 62.039062-62.800781 62.039062-34.382813 0-62.402344-27.761718-62.8125-62.039062-.007813-.261719-.007813-.519531-.007813-.78125h30c0 .261719 0 .519531.007813.78125.410156 17.738281 14.972656 32.039062 32.8125 32.039062 17.828125 0 32.390625-14.300781 32.800781-32.039062.007813-.261719.007813-.519531.007813-.78125zm0 0" fill="#e1e1e3"/><path d="m230.910156 422.691406-2.871094 30h-195.339843l-2.871094-30zm0 0" fill="#82d2ff"/><path d="m130.371094 422.691406h100.539062l-2.871094 30h-97.667968zm0 0" fill="#08b7fc"/><path d="m260.738281 231.03125v30h-67.566406c-.410156 34.277344-28.433594 62.039062-62.800781 62.039062v-30c17.828125 0 32.390625-14.300781 32.800781-32.039062h-32.800781v-30zm0 0" fill="#c8c6cd"/><path d="m512 351.261719v91.097656h-122.398438v-129.859375h86.21875zm0 0" fill="#f80"/></svg>