<?xml version="1.0" encoding="utf-8"?>
<!-- Generator: Adobe Illustrator 16.0.0, SVG Export Plug-In . SVG Version: 6.00 Build 0)  -->
<!DOCTYPE svg PUBLIC "-//W3C//DTD SVG 1.1//EN" "http://www.w3.org/Graphics/SVG/1.1/DTD/svg11.dtd">
<svg version="1.1" id="Layer_1" xmlns="http://www.w3.org/2000/svg" xmlns:xlink="http://www.w3.org/1999/xlink" x="0px" y="0px"
	 width="512px" height="512px" viewBox="0 0 512 512" enable-background="new 0 0 512 512" xml:space="preserve">
<linearGradient id="SVGID_1_" gradientUnits="userSpaceOnUse" x1="164.772" y1="320.5557" x2="1698.4238" y2="320.5557" gradientTransform="matrix(0.3338 0 0 0.3338 -55.0084 147.9769)">
	<stop  offset="0" style="stop-color:#E93E3A"/>
	<stop  offset="0.35" style="stop-color:#ED683C"/>
	<stop  offset="0.7" style="stop-color:#F3903F"/>
	<stop  offset="1" style="stop-color:#FDC70C"/>
</linearGradient>
<path fill="url(#SVGID_1_)" d="M511.703,486.273l-73.09-270.066l-1.492-5.531c0-0.168-0.172-0.289-0.23-0.461
	c0.742-1.438,1.387-2.926,1.93-4.449c4.684,3.941,10.348,6.539,16.387,7.527c1.801,0.281,3.621,0.426,5.445,0.426
	c18.934-0.031,34.258-15.41,34.223-34.348c-0.012-7.219-2.305-14.25-6.547-20.09L397.676,34.426
	c-0.496-0.609-1.074-1.148-1.715-1.602c-0.254-0.246-0.52-0.477-0.797-0.695l-0.063-0.051c-0.379-0.156-0.766-0.289-1.164-0.395
	C393.32,31.383,392.672,31.152,392,31c-0.336-0.02-0.676-0.02-1.012,0c-0.785-0.055-1.57,0-2.34,0.16h-0.078l-6.719-24.855
	c-1.254-4.559-5.957-7.242-10.516-6l-33.09,8.957c-4.555,1.25-7.242,5.957-6,10.516l6.711,24.859
	c-2.313,0.641-4.246,2.23-5.32,4.379c-0.145,0.344-0.262,0.695-0.359,1.055c-0.254,0.594-0.441,1.215-0.559,1.852
	c-0.051,0.141-0.094,0.285-0.129,0.43l-15.367,153.535c-1.871,18.836,11.883,35.625,30.719,37.5c1.168,0.113,2.316,0.172,3.43,0.172
	c14.512,0.016,27.434-9.184,32.168-22.902c1.199,1.066,2.469,2.043,3.805,2.93v0.258l15.801,58.117
	c-13.586-10.816-33.117-9.742-45.43,2.5l-24.242,24.25c-9.094,8.902-12.348,22.191-8.391,34.285H63.859
	c-14.199,0-25.715,11.516-25.715,25.715c0.031,2.93,0.563,5.828,1.578,8.574h-6.301c-4.734,0-8.57,3.836-8.57,8.57v48.789
	c-0.18,0.25-0.438,0.406-0.582,0.66l-20.824,36.09c-7.098,12.309-2.879,28.043,9.43,35.141c12.309,7.102,28.043,2.879,35.145-9.426
	l29.367-50.875c0.066-0.109,0.066-0.238,0.129-0.359h23.047v51.43c0,4.734,3.84,8.57,8.574,8.57h102.859
	c4.734,0,8.57-3.836,8.57-8.57v-51.43h91.57l29.582,51.234c7.102,12.309,22.836,16.527,35.145,9.426s16.531-22.832,9.43-35.141
	l-18.488-32.027l61.355-61.355l32.938,121.719c1.254,4.555,5.953,7.238,10.512,6l33.094-8.965
	C510.25,495.512,512.93,490.824,511.703,486.273z M427.445,301.051c-0.465,0-0.859,0.102-1.363,0.109l-19.426-71.762
	c2.898-0.023,5.777-0.418,8.574-1.176c2.789-0.793,5.461-1.945,7.953-3.426l22.184,82.02
	C440.094,303.168,433.855,301.16,427.445,301.051z M351.645,58.949l29.805-8.063c1.16,0.176,2.344,0.117,3.48-0.18l37.93,139.949
	c2.469,9.141-2.938,18.555-12.078,21.023c-9.141,2.473-18.555-2.934-21.027-12.078L351.645,58.949z M477.504,182.117
	c-1.484,9.352-10.27,15.727-19.621,14.242c-4.492-0.711-8.516-3.18-11.188-6.863l-10.121-13.98l-0.094-0.086l-25.203-93.129
	l63.199,87.055C477.148,173.035,478.238,177.629,477.504,182.117z M350.961,23.617l16.551-4.48l4.473,16.551l-16.543,4.477
	L350.961,23.617z M368.402,210.988c-0.945,9.418-9.352,16.289-18.773,15.34c-9.418-0.945-16.289-9.352-15.34-18.77l10.715-107.566
	l24.625,91.012c0,0.285-0.129,0.543-0.113,0.859l0.344,4.559L368.402,210.988z M340.57,362.535c2.488,1.438,5.148,2.555,7.922,3.316
	l-7.922,7.902V362.535z M345.594,320.875l24.242-24.25c6.711-6.676,17.566-6.645,24.242,0.07c5.641,5.676,6.609,14.496,2.328,21.258
	l-29.488,29.484c-8.008,5.051-18.594,2.656-23.645-5.352c-4.258-6.754-3.293-15.551,2.328-21.219L345.594,320.875z M323.426,377.301
	H220.566V360.16h102.859V377.301z M203.426,454.445h-85.719v-17.141h85.719V454.445z M203.426,420.16h-85.719v-25.715h85.719V420.16
	z M117.707,377.301V360.16h85.719v17.141H117.707z M55.289,368.73c0-4.734,3.836-8.57,8.57-8.57h36.703v17.141H63.859
	C59.125,377.301,55.289,373.465,55.289,368.73z M33.141,488.535c-1.137,1.969-3.008,3.406-5.203,3.996
	c-4.57,1.238-9.277-1.465-10.516-6.031c-0.598-2.207-0.289-4.559,0.855-6.535l19.715-34.09h19.773L33.141,488.535z M41.992,428.73
	v-34.285h58.57v34.285H41.992z M117.707,488.734V471.59h85.719v17.145H117.707z M220.566,394.445H340.57
	c2.273,0,4.453-0.902,6.063-2.512l32.012-31.973c1.16-0.828,2.266-1.73,3.309-2.699l24.25-24.25
	c0.969-1.043,1.871-2.148,2.699-3.309l6.859-6.855c6.105-6.121,16.016-6.133,22.133-0.031c0.141,0.141,0.277,0.281,0.41,0.426
	c5.797,6.156,5.629,15.816-0.379,21.77l-83.785,83.789H220.566V394.445z M368.273,491.672c-4.098,2.367-9.34,0.965-11.707-3.137
	l-24.629-42.66h19.777l19.715,34.09c2.363,4.102,0.953,9.344-3.148,11.707C368.277,491.672,368.277,491.672,368.273,491.672z
	 M476.371,486.961l-33.266-122.93l6.969-6.965c2.648-2.688,4.813-5.813,6.402-9.234l36.438,134.645L476.371,486.961z
	 M117.289,186.953c31.512,0,57.059-25.551,57.059-57.063c0-31.516-25.547-57.063-57.059-57.063
	c-31.516,0-57.063,25.547-57.063,57.063v0.008c0.051,31.488,25.574,56.996,57.063,57.027V186.953z M117.289,89.98
	c22.043,0,39.918,17.871,39.918,39.918s-17.875,39.918-39.918,39.918c-22.047,0-39.918-17.871-39.918-39.918
	c0.008-22.047,17.871-39.922,39.918-39.945V89.98z M105.777,47.098V29.953c0-4.734,3.836-8.57,8.57-8.57s8.57,3.836,8.57,8.57
	v17.145c0,4.734-3.836,8.57-8.57,8.57S105.777,51.832,105.777,47.098z M17.84,77.098c2.367-4.102,7.609-5.504,11.707-3.137
	l14.848,8.57c4.113,2.34,5.555,7.574,3.215,11.688c-2.34,4.117-7.574,5.555-11.688,3.215c-0.035-0.02-0.066-0.035-0.098-0.055
	l-14.848-8.574C16.879,86.438,15.473,81.195,17.84,77.098z M17.84,188.527c-2.367-4.098-0.965-9.34,3.137-11.707l14.848-8.574
	c4.082-2.391,9.332-1.023,11.727,3.063c2.395,4.082,1.027,9.336-3.059,11.73c-0.031,0.016-0.066,0.035-0.098,0.055l-14.848,8.57
	C25.449,194.031,20.207,192.629,17.84,188.527z M114.348,209.957c4.734,0,8.57,3.84,8.57,8.574v17.141
	c0,4.734-3.836,8.574-8.57,8.574s-8.57-3.84-8.57-8.574v-17.141C105.777,213.797,109.613,209.957,114.348,209.957z M181.137,171.387
	c2.367-4.102,7.609-5.504,11.711-3.137l14.844,8.57c4.117,2.34,5.555,7.574,3.215,11.688c-2.34,4.117-7.57,5.555-11.688,3.215
	c-0.031-0.02-0.066-0.039-0.098-0.055l-14.848-8.574C180.176,180.727,178.77,175.484,181.137,171.387z M181.137,94.242
	c-2.367-4.102-0.961-9.344,3.137-11.711l14.848-8.57c4.082-2.395,9.336-1.027,11.73,3.059c2.395,4.082,1.023,9.336-3.063,11.73
	c-0.031,0.02-0.063,0.035-0.098,0.055l-14.844,8.574C188.746,99.746,183.504,98.34,181.137,94.242z"/>
</svg>
