<svg height="512pt" viewBox="0 0 512 512" width="512pt" xmlns="http://www.w3.org/2000/svg"><path d="m512 256c0 141.386719-114.613281 256-256 256s-256-114.613281-256-256 114.613281-256 256-256 256 114.613281 256 256zm0 0" fill="#e98724"/><path d="m0 256c0 141.386719 114.613281 256 256 256v-512c-141.386719 0-256 114.613281-256 256zm0 0" fill="#f7941e"/><path d="m444.019531 256c0-104.058594-84.179687-188.414062-188.019531-188.414062s-188.019531 84.355468-188.019531 188.414062 84.179687 188.414062 188.019531 188.414062 188.019531-84.355468 188.019531-188.414062zm0 0" fill="#c4e8f2"/><path d="m256 67.585938c-103.839844 0-188.019531 84.355468-188.019531 188.414062s84.179687 188.414062 188.019531 188.414062zm0 0" fill="#ddf1f8"/><path d="m177.558594 351.859375c-3.839844 0-7.683594-1.464844-10.613282-4.398437-5.851562-5.863282-5.847656-15.359376.015626-21.214844l73.859374-73.753906v-132.417969c0-8.285157 6.714844-15 15-15 8.285157 0 15 6.714843 15 15v138.640625c0 3.980468-1.582031 7.800781-4.398437 10.613281l-78.265625 78.144531c-2.925781 2.925782-6.761719 4.386719-10.597656 4.386719zm0 0" fill="#004a6b"/><path d="m397.328125 241.410156h-45.574219c-8.28125 0-15 6.714844-15 15 0 8.28125 6.71875 15 15 15h45.574219c8.28125 0 15-6.71875 15-15 0-8.285156-6.71875-15-15-15zm0 0" fill="#004a6b"/><path d="m160.246094 241.410156h-45.574219c-8.28125 0-15 6.714844-15 15 0 8.28125 6.71875 15 15 15h45.574219c8.28125 0 15-6.71875 15-15 0-8.285156-6.71875-15-15-15zm0 0" fill="#006091"/><path d="m334.316406 316.9375c-5.855468-5.859375-15.355468-5.859375-21.214844 0-5.855468 5.855469-5.859374 15.351562 0 21.210938l32.222657 32.234374c2.929687 2.929688 6.769531 4.394532 10.609375 4.394532 3.835937 0 7.675781-1.464844 10.605468-4.394532 5.855469-5.855468 5.859376-15.355468 0-21.210937zm0 0" fill="#004a6b"/><path d="m166.675781 149.253906c-5.859375-5.859375-15.355469-5.859375-21.214843-.003906-5.855469 5.859375-5.859376 15.355469 0 21.214844l32.222656 32.230468c2.929687 2.933594 6.769531 4.398438 10.609375 4.398438 3.835937 0 7.675781-1.464844 10.605469-4.394531 5.855468-5.855469 5.859374-15.355469 0-21.214844zm0 0" fill="#006091"/><path d="m256 340.597656c-8.285156 0-15 6.714844-15 15v45.585938c0 8.28125 6.714844 15 15 15s15-6.71875 15-15v-45.585938c0-8.285156-6.714844-15-15-15zm0 0" fill="#004a6b"/><path d="m323.710938 207.09375c3.835937 0 7.675781-1.464844 10.605468-4.394531l32.226563-32.234375c5.855469-5.859375 5.855469-15.355469-.003907-21.214844-5.859374-5.855469-15.355468-5.855469-21.214843.003906l-32.222657 32.234375c-5.859374 5.859375-5.855468 15.355469 0 21.210938 2.929688 2.929687 6.769532 4.394531 10.609376 4.394531zm0 0" fill="#004a6b"/><path d="m256 340.597656c-8.285156 0-15 6.714844-15 15v45.585938c0 8.28125 6.714844 15 15 15zm0 0" fill="#006091"/><path d="m255.820312 105.074219c-8.285156 0-15 6.714843-15 15v132.417969l-73.859374 73.753906c-5.863282 5.855468-5.867188 15.351562-.015626 21.214844 2.929688 2.933593 6.773438 4.398437 10.613282 4.398437 3.835937 0 7.671875-1.460937 10.601562-4.386719l67.839844-67.742187v-174.648438c-.058594 0-.117188-.007812-.179688-.007812zm0 0" fill="#006091"/><path d="m256 459.414062c-111.945312 0-203.019531-91.25-203.019531-203.414062s91.074219-203.414062 203.019531-203.414062 203.019531 91.25 203.019531 203.414062-91.074219 203.414062-203.019531 203.414062zm0-376.828124c-95.402344 0-173.019531 77.792968-173.019531 173.414062s77.617187 173.414062 173.019531 173.414062 173.019531-77.792968 173.019531-173.414062-77.617187-173.414062-173.019531-173.414062zm0 0" fill="#ffcd2a"/><path d="m82.980469 256c0-95.570312 77.539062-173.335938 172.875-173.414062v-30c-111.878907.078124-202.875 91.300781-202.875 203.414062s90.996093 203.335938 202.875 203.414062v-30c-95.335938-.078124-172.875-77.84375-172.875-173.414062zm0 0" fill="#ffe353"/></svg>