<svg height="512pt" viewBox="-24 0 512 512.002" width="512pt" xmlns="http://www.w3.org/2000/svg"><g fill="#e8e8e8"><path d="m168.042969 415.566406c-23.316407 22.957032-35.941407 56.5-35.941407 88.933594h35.941407l15.222656-31.109375zm0 0"/><path d="m295.820312 415.566406c23.320313 22.957032 35.945313 56.5 35.945313 88.933594h-35.945313l-15.21875-31.109375zm0 0"/><path d="m276.753906 398.816406v42.492188c0 11.597656-9.410156 21.007812-21.003906 21.007812h-47.632812c-11.59375 0-21.007813-9.410156-21.007813-21.007812v-42.492188zm0 0"/></g><path d="m295.820312 415.566406v88.933594h-127.777343v-88.933594c3.242187-3.203125 6.683593-6.183594 10.328125-8.933594h19.777344v32.03125c0 8.738282 7.09375 15.832032 15.832031 15.832032h35.902343c8.742188 0 15.835938-7.09375 15.835938-15.832032v-32.03125h19.777344c3.640625 2.75 7.082031 5.730469 10.324218 8.933594zm0 0" fill="#52b2de"/><path d="m25.667969 173.191406c-5.589844 19.046875-8.421875 38.84375-8.421875 58.847656 0 7.542969.410156 15.019532 1.195312 22.417969h426.984375c.785157-7.398437 1.195313-14.875 1.195313-22.417969 0-1.621093-.019532-3.246093-.054688-4.871093-.429687-18.332031-3.246094-36.492188-8.378906-53.976563zm0 0" fill="#7f6052"/><path d="m76.660156 259.617188c0 19.101562-15.480468 34.582031-34.578125 34.582031-19.097656 0-34.582031-15.480469-34.582031-34.582031 0-19.097657 15.484375-34.578126 34.582031-34.578126 19.097657 0 34.578125 15.480469 34.578125 34.578126zm0 0" fill="#e2b3a3"/><path d="m456.363281 259.617188c0 19.101562-15.480469 34.582031-34.578125 34.582031s-34.582031-15.480469-34.582031-34.582031c0-19.097657 15.484375-34.578126 34.582031-34.578126s34.578125 15.480469 34.578125 34.578126zm0 0" fill="#e2b3a3"/><path d="m61.996094 158.894531c28.667968-64.277343 93.964844-109.183593 169.9375-109.183593 75.976562 0 141.277344 44.90625 169.921875 109.191406l14.160156 95.550781c-11.238281 90.121094-89.371094 159.90625-184.082031 159.90625-94.714844 0-172.847656-69.785156-184.082032-159.90625zm0 0" fill="#f5cdb6"/><path d="m406.933594 72.75c-32.09375-26.507812-93.023438-65.25-175-65.25-81.976563 0-142.90625 38.742188-175.003906 65.25-16.191407 13.371094-25.582032 33.25-25.582032 54.246094v33.199218h401.171875v-33.199218c0-20.996094-9.394531-40.875-25.585937-54.246094zm0 0" fill="#49a0c7"/><path d="m331.769531 287.152344h-23.347656c-4.144531 0-7.5-3.359375-7.5-7.5s3.355469-7.5 7.5-7.5h23.347656c4.140625 0 7.5 3.359375 7.5 7.5s-3.359375 7.5-7.5 7.5zm0 0" fill="#e98e8f"/><path d="m155.445312 287.152344h-23.347656c-4.144531 0-7.5-3.359375-7.5-7.5s3.355469-7.5 7.5-7.5h23.347656c4.140626 0 7.5 3.359375 7.5 7.5s-3.359374 7.5-7.5 7.5zm0 0" fill="#e98e8f"/><path d="m102.230469 184.492188c0 76.769531-54.378907 69.964843-54.378907 69.964843-.925781-7.34375-1.394531-14.832031-1.394531-22.414062 0-17.082031 2.433594-34.238281 7.246094-50.625 2.269531-7.730469 5.042969-15.25 8.296875-22.523438zm0 0" fill="#8c6a5a"/><path d="m417.40625 232.039062c0 7.585938-.464844 15.074219-1.390625 22.414063 0 0-54.382813 6.808594-54.382813-69.960937l40.226563-25.589844c3.25 7.265625 6.027344 14.78125 8.292969 22.511718 4.421875 15.066407 6.847656 30.730469 7.207031 46.429688.03125 1.402344.046875 2.792969.046875 4.195312zm0 0" fill="#8c6a5a"/><path d="m433.160156 143.984375c-37.957031-12.320313-119.765625-35.332031-201.226562-35.332031-81.460938 0-163.269532 23.011718-201.226563 35.332031-11.917969 3.867187-18.179687 16.902344-13.730469 28.613281l5.207032 13.71875c4.144531 10.90625 16.101562 16.644532 27.207031 13.066406 34.683594-11.175781 109.886719-32.308593 182.542969-32.308593 72.445312 0 147.828125 21.164062 182.566406 32.332031 11.097656 3.566406 23.039062-2.175781 27.175781-13.074219l5.214844-13.734375c4.445313-11.710937-1.816406-24.746094-13.730469-28.613281zm0 0" fill="#52b2de"/><path d="m256.898438 42.207031h-49.933594c-5.425782 0-9.824219 4.402344-9.824219 9.828125v22.625c0 5.425782 4.398437 9.824219 9.824219 9.824219h49.933594c5.425781 0 9.824218-4.398437 9.824218-9.824219v-22.625c0-5.425781-4.398437-9.828125-9.824218-9.828125zm0 0" fill="#e8e8e8"/><path d="m320.09375 261.957031c4.140625 0 7.5-3.355469 7.5-7.496093v-17.144532c0-4.140625-3.359375-7.5-7.5-7.5s-7.5 3.359375-7.5 7.5v17.144532c0 4.140624 3.359375 7.496093 7.5 7.496093zm0 0"/><path d="m143.769531 261.957031c4.140625 0 7.5-3.355469 7.5-7.496093v-17.144532c0-4.140625-3.359375-7.5-7.5-7.5s-7.5 3.359375-7.5 7.5v17.144532c0 4.140624 3.359375 7.496093 7.5 7.496093zm0 0"/><path d="m231.933594 286.1875c8.308594 0 16.113281-3.480469 21.414062-9.542969 2.726563-3.117187 2.410156-7.855469-.710937-10.582031-3.117188-2.726562-7.855469-2.410156-10.582031.710938-2.453126 2.804687-6.140626 4.414062-10.121094 4.414062-3.984375 0-7.671875-1.609375-10.125-4.414062-2.726563-3.117188-7.460938-3.4375-10.582032-.710938-3.117187 2.726562-3.4375 7.464844-.710937 10.582031 5.300781 6.066407 13.105469 9.542969 21.417969 9.542969zm0 0"/><path d="m256.898438 91.984375c9.554687 0 17.324218-7.769531 17.324218-17.324219v-22.625c0-9.550781-7.769531-17.324218-17.324218-17.324218h-49.933594c-9.550782 0-17.324219 7.773437-17.324219 17.324218v22.625c0 9.554688 7.773437 17.324219 17.324219 17.324219zm-52.257813-17.324219v-22.625c0-1.28125 1.042969-2.324218 2.324219-2.324218h49.933594c1.28125 0 2.324218 1.042968 2.324218 2.324218v22.625c0 1.28125-1.042968 2.324219-2.324218 2.324219h-49.933594c-1.28125 0-2.324219-1.042969-2.324219-2.324219zm0 0"/><path d="m454.121094 232.039062c0-15.105468-1.597656-30.207031-4.714844-44.9375l4.496094-11.839843c2.882812-7.597657 2.539062-15.816407-.972656-23.140625-2.796876-5.835938-7.296876-10.453125-12.914063-13.363282v-11.757812c0-23.296875-10.3125-45.179688-28.300781-60.035156-21.625-17.859375-45.363282-32.542969-70.550782-43.644532-35.113281-15.472656-71.863281-23.320312-109.234374-23.320312-37.488282 0-74.351563 7.894531-109.5625 23.472656-3.785157 1.671875-5.5 6.101563-3.824219 9.890625 1.675781 3.789063 6.105469 5.5 9.894531 3.824219 33.285156-14.722656 68.105469-22.1875 103.492188-22.1875 81.183593 0 141.5 39.804688 170.230468 63.53125 14.527344 11.996094 22.855469 29.660156 22.855469 48.46875v6.542969c-.265625-.082031-.535156-.160157-.800781-.242188-14.058594-4.328125-28.25-8.261719-42.527344-11.816406-4.019531-1-8.089844 1.449219-9.089844 5.46875s1.445313 8.085937 5.464844 9.089844c17.761719 4.421875 35.359375 9.464843 52.777344 15.078125 7.71875 2.484375 11.910156 11.246094 9.035156 18.816406 0 0-5.214844 13.734375-5.226562 13.757812-.007813.019532-.019532.039063-.027344.0625-2.042969 5.328126-7.535156 9.1875-13.421875 9.1875-3.398438 0-6.667969-1.402343-9.871094-2.40625-76.152344-23.835937-155.851563-36.902343-235.574219-27.316406-43.757812 5.257813-86.664062 15.660156-128.617187 29.007813-.015625.003906-.03125.011719-.050781.015625-7.136719 2.296875-15.136719-1.511719-17.847657-8.488282-.007812-.023437-.019531-.042968-.027343-.0625-.007813-.015624-.011719-.027343-.019532-.039062 0 0-5.203125-13.703125-5.207031-13.71875-2.890625-7.613281 1.324219-16.316406 9.035156-18.816406 64.101563-20.792969 131.292969-34.964844 198.910157-34.964844 33.785156 0 71.03125 4.027344 110.792968 11.960938 4.984375.996093 11.253906 3.207031 14.390625-2.4375 2.417969-4.351563-.171875-9.953126-5.035156-10.96875-43.132813-8.996094-83.558594-13.554688-120.148437-13.554688-50.335938 0-100.582032 8.070312-149.335938 20.199219-14.691406 3.65625-29.289062 7.71875-43.757812 12.1875v-6.542969c0-18.800781 8.335937-36.46875 22.867187-48.46875 12.246094-10.109375 25.480469-19.316406 39.339844-27.363281 3.585937-2.078125 4.800781-6.667969 2.722656-10.25-2.082031-3.582031-6.671875-4.800781-10.25-2.722657-14.570313 8.460938-28.488281 18.140626-41.363281 28.773438-17.992188 14.859375-28.3125 36.738281-28.3125 60.03125v11.761719c-5.613282 2.910156-10.109375 7.527343-12.90625 13.359375-3.511719 7.324218-3.855469 15.542968-.972656 23.140625l4.496093 11.84375c-3.113281 14.726562-4.714843 29.832031-4.714843 44.9375 0 .226562.007812.453125.007812.679687-6.082031 7.296875-9.75 16.675782-9.75 26.898438 0 23.203125 18.878906 42.082031 42.082031 42.082031 3.339844 0 6.621094-.402344 9.816407-1.171875 13.894531 35.359375 38.183593 65.398438 69.003906 86.742188 3.710937 2.566406 38.75 25.992187 42.605468 22.257812-.238281.230469-.484374.453125-.726562.691406-23.90625 23.539063-38.179688 58.785156-38.179688 94.28125 0 4.140625 3.359376 7.5 7.5 7.5h199.660157c4.144531 0 7.5-3.359375 7.5-7.5 0-35.5-14.269531-70.742187-38.1875-94.289062-.234375-.230469-.480469-.453125-.71875-.683594 50.851562-19.003906 91.796875-58.59375 111.609375-109 3.195312.769531 6.476562 1.171875 9.816406 1.171875 23.203125 0 42.082031-18.878906 42.082031-42.082031 0-10.222656-3.667969-19.601563-9.75-26.898438 0-.226562.007813-.453125.007813-.683594zm-28.054688-14.28125c-.570312-.054687-1.144531-.105468-1.722656-.140624-.238281-3.0625-.550781-6.128907-.9375-9.1875-.023438-.179688-.042969-.363282-.066406-.542969 4.917968-.359375 9.632812-1.96875 13.726562-4.59375.847656 5.910156 1.433594 11.863281 1.757813 17.828125-4.011719-1.777344-8.300781-2.914063-12.742188-3.359375-.003906-.003907-.011719-.003907-.015625-.003907zm-253.429687 179.089844c-59.003907-20.640625-104.558594-71.886718-115.851563-133.660156-.058594-.328125-.125-.652344-.179687-.980469-.023438-.117187-.039063-.238281-.0625-.359375.355469-.035156.726562-.078125 1.09375-.121094 25.539062-2.996093 43.007812-23.273437 48.859375-47.351562.488281-2.011719 2.921875-23.871094 3.128906-23.921875 40.074219-9.417969 81.058594-15.875 122.308594-15.875 16.699218 0 33.394531 1.125 49.980468 3.015625.191407.023438 47.175782 6.964844 72.328126 12.882812.574218 15.515626 3.421874 31.484376 11.515624 44.960938 8.804688 14.664062 24.519532 24.734375 41.5625 26.410156-.023437.140625-.042968.285156-.070312.425782-1.585938 8.949218-6.90625 26.472656-6.925781 26.53125-19.886719 57.027343-68.792969 100.164062-128.554688 113.636718-32.707031 7.371094-67.476562 5.484375-99.132812-5.59375zm-134.851563-179.089844c-4.445312.449219-8.734375 1.585938-12.746094 3.363282.324219-5.96875.910157-11.921875 1.757813-17.828125 4.09375 2.621093 8.8125 4.21875 13.726563 4.578125-.027344.230468-.992188 9.660156-1 9.746094-.578126.035156-1.152344.085937-1.738282.140624zm56.347656-20.253906c-1.4375 14.847656-5.867187 30.828125-17.789062 40.734375-7.597656 6.3125-15.972656 8.234375-21.734375 8.726563-.113281-1.3125-.222656-2.628906-.304687-3.949219-.789063-12.570313-.425782-25.476563 1.785156-37.894531.042968-.246094 24.863281-7.4375 36.378906-10.433594.199219-.050781 1.945312-.574219 1.925781-.339844-.070312 1.050782-.160156 2.105469-.261719 3.15625zm313.644532 7.640625c.035156.21875 1.367187 10.207031 1.699218 15.007813.148438 2.179687.566407 26.859375-.222656 26.785156-5.78125-.519531-14.871094-2.539062-22.742187-9.570312-8.8125-7.871094-13.304688-19.335938-15.480469-30.699219-.226562-1.171875-1.210938-12.355469-1.5625-12.445313 14.441406 3.714844 26.945312 7.386719 36.441406 10.335938.628906.195312 1.253906.390625 1.867188.585937zm-202.132813 214.960938c.324219.042969.648438.074219.96875.113281 8.296875 1.070312 16.875 1.644531 25.320313 1.644531 8.78125 0 17.578125-.585937 26.285156-1.753906v18.554687c0 4.597657-3.738281 8.335938-8.335938 8.335938h-35.902343c-4.59375 0-8.335938-3.738281-8.335938-8.335938zm-163.5625-133.40625c-14.933593 0-27.082031-12.144531-27.082031-27.078125 0-13.402344 10.570312-25.359375 23.957031-26.894532.003907 1.011719.039063 2.019532.058594 3.03125.332031 16.996094 2.992187 34.160157 7.929687 50.507813-1.59375.289063-3.214843.433594-4.863281.433594zm118.460938 149.5v60.800781h-20.707031c1.378906-21.964844 8.746093-43.390625 20.707031-60.800781zm127.777343 60.800781h-112.777343v-78.230469c1.445312-1.335937 2.933593-2.628906 4.453125-3.875.777344-.628906 10.652344 3.136719 10.652344 2.601563v21.167968c0 12.867188 10.464843 23.335938 23.332031 23.335938h35.902343c12.867188 0 23.335938-10.46875 23.335938-23.335938v-21.167968c3.566406-.765625 7.128906-1.636719 10.648438-2.601563 1.523437 1.242188 3.007812 2.539063 4.453124 3.875zm15 0v-60.804688c11.960938 17.414063 19.328126 38.835938 20.707032 60.804688zm118.464844-210.300781c-1.648437 0-3.273437-.144531-4.867187-.433594.730469-2.417969 1.40625-4.855469 2.039062-7.3125 3.878907-15.03125 5.894531-30.699219 5.949219-46.226563 13.46875 1.542969 23.957031 13.347657 23.957031 26.894532 0 14.933594-12.148437 27.078125-27.078125 27.078125zm0 0"/></svg>