<?xml version="1.0" encoding="iso-8859-1"?>
<!-- Generator: Adobe Illustrator 19.0.0, SVG Export Plug-In . SVG Version: 6.00 Build 0)  -->
<svg version="1.1" id="Capa_1" xmlns="http://www.w3.org/2000/svg" xmlns:xlink="http://www.w3.org/1999/xlink" x="0px" y="0px"
	 viewBox="0 0 512.001 512.001" style="enable-background:new 0 0 512.001 512.001;" xml:space="preserve">
<g>
	<path style="fill:#3C3A41;" d="M92.876,311.577c-5.99,5.78-15.475,5.585-21.212-0.352c-5.757-5.947-5.596-15.455,0.352-21.212
		l10.416-10.079c20.597-19.952,49.866-29.372,78.228-25.197c8.204,1.201,13.858,8.834,12.657,17.022
		c-1.216,8.175-8.849,13.976-17.022,12.657c-19.366-2.813-39.056,3.56-52.987,17.066L92.876,311.577z"/>
	<path style="fill:#3C3A41;" d="M228.427,192.214c-9.024-27.131-2.08-56.532,18.136-76.734l16.202-16.217
		c5.859-5.859,15.353-5.859,21.212,0c5.859,5.845,5.859,15.353,0,21.212l-16.202,16.217c-12.13,12.13-16.305,29.753-10.87,46.028
		C263.143,201.541,234.723,211.101,228.427,192.214z"/>
	<path style="fill:#3C3A41;" d="M130.247,230.156c-3.809,0-7.618-1.436-10.533-4.321c-5.903-5.83-5.962-15.323-0.146-21.212
		c28.215-28.596,73.599-29.738,103.293-2.651c6.123,5.596,6.563,15.074,0.981,21.197c-5.61,6.123-15.089,6.548-21.197,0.981
		c-17.755-16.202-44.871-15.528-61.718,1.538C137.981,228.662,134.114,230.156,130.247,230.156z"/>
</g>
<path style="fill:#57555C;" d="M415.322,192.994c-25.457-14.002-57.068-13.367-72.554-5.517c-5.303,1.486-11.245,0.637-15.275-2.969
	l-0.637-0.637c-4.029-4.029-5.939-9.76-4.029-15.062c8.487-25.035,11.668-46.035-2.546-71.281
	c-4.031-7.425-1.274-16.548,5.727-20.578c7.425-4.031,16.548-1.274,20.578,5.727c11.88,21.64,15.911,46.461,11.668,70.221
	c0.425,0,0.425,0,0.848,0.001c24.185-2.97,49.007,1.908,70.645,13.789c7.425,4.031,9.972,12.942,5.939,20.366
	C431.658,194.477,422.536,196.813,415.322,192.994z"/>
<path style="fill:#3C3A41;" d="M327.493,184.508l31.609-31.609c24.185-2.97,49.007,1.908,70.645,13.789
	c7.425,4.031,9.972,12.942,5.939,20.366c-4.029,7.424-13.152,9.76-20.365,5.94c-25.457-14.002-57.068-13.367-72.554-5.517
	C337.464,188.963,331.524,188.114,327.493,184.508z"/>
<g>
	<path style="fill:#2B292C;" d="M204.431,437.782c-5.859-5.859-5.859-15.353,0-21.212c16.51-16.51,24.289-39.275,21.373-62.48
		c-1.04-8.219,4.79-15.719,13.009-16.759c8.189-0.938,15.719,4.79,16.759,13.009c4.087,32.463-6.826,64.34-29.929,87.443
		C219.784,443.642,210.291,443.642,204.431,437.782z"/>
	<path style="fill:#2B292C;" d="M342.106,286.029c-7.926,0-15.953-1.274-23.791-3.867c-18.685-6.193-9.503-34.685,9.435-28.479
		c16.261,5.376,33.957,1.23,46.087-10.914l16.217-16.217c5.859-5.859,15.353-5.859,21.212,0c5.859,5.859,5.859,15.353,0,21.212
		l-16.217,16.217C380.678,278.352,361.663,286.029,342.106,286.029z"/>
	<path style="fill:#2B292C;" d="M289.09,395.226c-5.815-5.903-5.757-15.397,0.132-21.227c8.556-8.439,13.287-19.63,13.316-31.525
		c0.044-12.027-4.702-23.425-13.375-32.097c-5.859-5.859-6.914-16.407-1.055-22.267c5.859-5.903,14.298-6.929,20.157-1.055
		l2.109,2.109c14.356,14.356,22.237,33.327,22.164,53.398c-0.059,19.938-7.955,38.69-22.223,52.797
		C304.433,401.153,294.964,401.128,289.09,395.226z"/>
</g>
<path style="fill:#3C3A41;" d="M348.284,163.716l-0.637-0.637c-17.607-17.607-46.037-17.607-63.644,0l-21.214,21.214
	c-5.728,5.728-5.939,15.275,0,21.214l42.429,42.429c5.728,5.728,15.486,5.728,21.214,0l21.214-21.214
	C364.832,209.115,365.043,181.325,348.284,163.716z"/>
<path style="fill:#2B292C;" d="M305.218,247.938l-20.577-20.577l63.644-63.644c16.759,17.608,16.548,45.4-0.637,63.007
	l-21.214,21.214C320.704,253.666,310.947,253.666,305.218,247.938z"/>
<path style="fill:#57555C;" d="M326.221,290.579l-18.032,17.61l-10.395,10.395L191.932,212.722l28.639-28.639
	c16.76-16.76,46.461-16.76,63.433,0.211l42.218,42.218c8.485,8.485,13.576,19.517,13.578,31.822
	C339.586,270.426,334.918,281.882,326.221,290.579z"/>
<path style="fill:#32D736;" d="M293.974,273.185l-60.038-60.038l-42.005-0.425l-35.215,35.215
	c-29.064,29.064-29.489,76.162,0,106.073l0.637,0.637c29.7,28.428,76.795,28.004,105.225-0.848l35.215-35.215L293.974,273.185z"/>
<path style="fill:#3C3A41;" d="M339.8,258.334c-0.214,12.093-4.881,23.548-13.579,32.245l-18.032,17.61l-10.395,10.395
	l-52.188-52.188l60.25-60.25l20.366,20.366C334.707,234.997,339.799,246.029,339.8,258.334z"/>
<path style="fill:#10BB67;" d="M297.794,318.584l-35.215,35.215c-28.43,28.852-75.525,29.276-105.225,0.848l109.042-109.042
	l27.579,27.579L297.794,318.584z"/>
<path style="fill:#FD4E26;" d="M512,256c0-70.434-29.428-134.077-75.676-180.324S326.434,0.001,256,0.001
	C115.135,0.001,0,114.71,0,256c0.001,70.433,29.428,134.077,75.676,180.324S185.567,511.999,256,512C397.29,512,512,396.441,512,256
	z M256,30.127c61.946-0.001,118.378,26.033,159.11,66.764s66.766,97.163,66.764,159.11c0.212,57.491-22.425,109.679-56.795,147.865
	L108.135,86.921C146.321,52.552,198.72,30.125,256,30.127z M256,481.875c-62.157,0.212-118.378-26.033-159.11-66.764
	s-66.977-96.952-66.764-159.11c-0.001-57.28,22.427-109.68,56.795-147.865l316.945,316.945
	C365.68,459.448,313.28,481.876,256,481.875z"/>
<path style="fill:#FD3018;" d="M256,512c-70.433-0.001-134.077-29.428-180.324-75.676L96.89,415.11
	c40.732,40.732,96.952,66.977,159.11,66.764c57.28,0.001,109.68-22.427,147.865-56.795L245.393,266.608l21.214-21.214
	L425.08,403.866c34.369-38.187,57.007-90.374,56.795-147.865c0.001-61.946-26.033-118.378-66.764-159.11l21.214-21.214
	c46.248,46.248,75.676,109.89,75.676,180.324C512,396.441,397.29,512,256,512z"/>
<g>
</g>
<g>
</g>
<g>
</g>
<g>
</g>
<g>
</g>
<g>
</g>
<g>
</g>
<g>
</g>
<g>
</g>
<g>
</g>
<g>
</g>
<g>
</g>
<g>
</g>
<g>
</g>
<g>
</g>
</svg>
