<svg height="512pt" viewBox="-28 0 512 512.001" width="512pt" xmlns="http://www.w3.org/2000/svg"><g fill-rule="evenodd"><path d="m406.652344 188.773438v-57.6875c0-.046876 0-.09375 0-.136719v-51.039063c0-.042968 0-.089844 0-.136718v-57.683594c0-6.648438-5.4375-12.089844-12.089844-12.089844h-240.835938c-6.648437 0-12.085937 5.441406-12.085937 12.089844v166.683594c0 6.648437 5.4375 12.085937 12.085937 12.085937h240.835938c6.652344 0 12.089844-5.4375 12.089844-12.085937zm0 0" fill="#f4ab38"/><path d="m414.46875 138.765625h24.207031c4.296875 0 7.8125-3.519531 7.8125-7.816406v-51.039063c0-4.296875-3.515625-7.8125-7.8125-7.8125h-24.207031c-4.253906 0-7.742188 3.441406-7.816406 7.675782v51.3125c.074218 4.234374 3.5625 7.679687 7.816406 7.679687zm0 0" fill="#b941d6"/><path d="m243.46875 496.363281c12.808594-8.496093 21.851562-25.691406 20.582031-45.316406l-9.59375-148.367187h-21.972656l-9.597656 148.367187c-1.269531 19.625 7.777343 36.820313 20.582031 45.316406zm0 0" fill="#e59123"/></g><path d="m222.796875 393.6875.085937 1.1875c.378907 5.261719 4.769532 9.277344 9.960938 9.277344.242188 0 .488281-.007813.734375-.023438 5.507813-.398437 9.648437-5.1875 9.25-10.695312l-.085937-1.191406c-.398438-5.507813-5.1875-9.644532-10.695313-9.25-5.507813.398437-9.648437 5.1875-9.25 10.695312zm0 0"/><path d="m234.113281 411.6875c-5.511719.394531-9.65625 5.179688-9.261719 10.6875l2.585938 36.078125c.164062 2.273437-1.367188 6.78125-2.730469 8.289063-5.054687.5-9 4.765624-9 9.949218 0 5.523438 4.476563 10 10 10 5.058594 0 9.726563-2.144531 13.503907-6.203125 6.011718-6.460937 8.664062-16.699219 8.175781-23.46875l-2.585938-36.074219c-.394531-5.507812-5.1875-9.652343-10.6875-9.257812zm0 0"/><path d="m438.675781 62.097656h-22.023437v-40.007812c0-12.179688-9.910156-22.089844-22.089844-22.089844h-337.910156c-12.183594 0-22.089844 9.910156-22.089844 22.089844v74.382812c-19.769531 4.550782-34.5625 22.28125-34.5625 43.414063v63.542969c0 24.570312 19.988281 44.5625 44.558594 44.5625h146.589844c13.542968 0 24.558593 11.015624 24.558593 24.558593v20.128907h-18.746093c-5.269532 0-9.636719 4.09375-9.980469 9.355468l-9.597657 148.367188c-1.136718 17.578125 4.703126 34.585937 16.023438 46.660156 9.03125 9.632812 20.503906 14.9375 32.300781 14.9375s23.269531-5.304688 32.300781-14.9375c11.320313-12.074219 17.160157-29.082031 16.023438-46.660156l-9.597656-148.367188c-.339844-5.261718-4.707032-9.355468-9.980469-9.355468h-18.746094v-20.128907c0-24.570312-19.988281-44.558593-44.558593-44.558593h-146.585938c-13.542969 0-24.5625-11.019532-24.5625-24.5625v-63.542969c0-9.980469 5.992188-18.585938 14.5625-22.421875v71.308594c0 12.179687 9.910156 22.089843 22.089844 22.089843h337.914062c12.179688 0 22.085938-9.910156 22.085938-22.089843v-40.007813h22.023437c9.824219 0 17.816407-7.992187 17.816407-17.816406v-51.039063c0-9.820312-7.992188-17.8125-17.816407-17.8125zm-184.601562 389.59375c.777343 12.082032-3.105469 23.632813-10.65625 31.691406-5.210938 5.558594-11.5 8.617188-17.710938 8.617188-6.210937 0-12.5-3.058594-17.710937-8.617188-7.550782-8.058593-11.433594-19.609374-10.652344-31.691406l8.992188-139.011718h38.746093zm142.578125-262.917968c0 1.132812-.957032 2.085937-2.089844 2.085937h-337.910156c-1.136719 0-2.089844-.953125-2.089844-2.085937v-166.683594c0-1.132813.953125-2.089844 2.089844-2.089844h337.910156c1.132812 0 2.089844.957031 2.089844 2.089844zm39.839844-60.007813h-19.839844v-46.667969h19.839844zm0 0"/><path d="m290.753906 32.804688h-172.4375c-5.523437 0-10 4.476562-10 10 0 5.523437 4.476563 10 10 10h172.4375c5.523438 0 10-4.476563 10-10 0-5.523438-4.476562-10-10-10zm0 0"/><path d="m323.367188 32.804688h-1.363282c-5.523437 0-10 4.476562-10 10 0 5.523437 4.476563 10 10 10h1.363282c5.519531 0 10-4.476563 10-10 0-5.523438-4.480469-10-10-10zm0 0"/></svg>