<svg height="480pt" viewBox="-48 0 480 480" width="480pt" xmlns="http://www.w3.org/2000/svg" xmlns:xlink="http://www.w3.org/1999/xlink"><linearGradient id="a"><stop offset="0" stop-color="#12c2e9"/><stop offset=".5" stop-color="#c471ed"/><stop offset="1" stop-color="#f64f59"/></linearGradient><linearGradient id="b" gradientUnits="userSpaceOnUse" x1="192" x2="192" xlink:href="#a" y1="560" y2="-56"/><linearGradient id="c" gradientUnits="userSpaceOnUse" x1="144" x2="144" xlink:href="#a" y1="560" y2="-56"/><linearGradient id="d" gradientUnits="userSpaceOnUse" x1="112" x2="112" xlink:href="#a" y1="560" y2="-56"/><linearGradient id="e" gradientUnits="userSpaceOnUse" x1="164" x2="164" xlink:href="#a" y1="560" y2="-56"/><linearGradient id="f" gradientUnits="userSpaceOnUse" x1="264" x2="264" xlink:href="#a" y1="560" y2="-56"/><path d="m40 480h208c22.082031-.027344 39.972656-17.917969 40-40v-120h56c22.082031-.027344 39.972656-17.917969 40-40v-128c-.027344-22.082031-17.917969-39.972656-40-40h-56v-72c-.027344-22.082031-17.917969-39.9726562-40-40h-208c-22.082031.0273438-39.9726562 17.917969-40 40v400c.0273438 22.082031 17.917969 39.972656 40 40zm304-352c13.253906 0 24 10.746094 24 24v128c0 13.253906-10.746094 24-24 24h-204.6875l18.34375-18.34375c1.5-1.5 2.34375-3.535156 2.34375-5.65625v-128c0-13.253906 10.746094-24 24-24zm-231.390625 187.0625c1.238281 2.988281 4.15625 4.9375 7.390625 4.9375h120v64h-192v-304h192v32h-56c-22.082031.027344-39.972656 17.917969-40 40v124.6875l-29.65625 29.65625c-2.289062 2.289062-2.972656 5.730469-1.734375 8.71875zm-96.609375-275.0625c0-13.253906 10.746094-24 24-24h208c13.253906 0 24 10.746094 24 24v72h-16v-40c0-4.417969-3.582031-8-8-8h-208c-4.417969 0-8 3.582031-8 8v320c0 4.417969 3.582031 8 8 8h208c4.417969 0 8-3.582031 8-8v-72h16v120c0 13.253906-10.746094 24-24 24h-208c-13.253906 0-24-10.746094-24-24zm0 0" fill="url(#b)"/><path d="m160 432c0 8.835938-7.164062 16-16 16s-16-7.164062-16-16 7.164062-16 16-16 16 7.164062 16 16zm0 0" fill="url(#c)"/><path d="m120 40c0 4.417969-3.582031 8-8 8s-8-3.582031-8-8 3.582031-8 8-8 8 3.582031 8 8zm0 0" fill="url(#d)"/><path d="m144 48h40c4.417969 0 8-3.582031 8-8s-3.582031-8-8-8h-40c-4.417969 0-8 3.582031-8 8s3.582031 8 8 8zm0 0" fill="url(#e)"/><path d="m200 288h128c4.417969 0 8-3.582031 8-8v-96c0-4.417969-3.582031-8-8-8h-16v-24c0-2.402344-1.078125-4.679688-2.941406-6.199219-1.859375-1.519531-4.304688-2.121093-6.660156-1.640625l-38.398438 7.679688-38.398438-7.679688c-2.355468-.480468-4.800781.121094-6.660156 1.640625-1.863281 1.519531-2.941406 3.796875-2.941406 6.199219v24h-16c-4.417969 0-8 3.582031-8 8v96c0 4.417969 3.582031 8 8 8zm72-121.441406 24-4.796875v14.238281h-24zm0 25.441406h48v32h-48zm0 48h48v32h-48zm-40-78.238281 24 4.796875v9.441406h-24zm-24 30.238281h48v32h-48zm0 48h48v32h-48zm0 0" fill="url(#f)"/></svg>