<svg height="483pt" viewBox="0 -2 483.44129 483" width="483pt" xmlns="http://www.w3.org/2000/svg" xmlns:xlink="http://www.w3.org/1999/xlink"><linearGradient id="a"><stop offset="0" stop-color="#e93e3a"/><stop offset=".35" stop-color="#ed683c"/><stop offset=".7" stop-color="#f3903f"/><stop offset="1" stop-color="#fdc70c"/></linearGradient><linearGradient id="b" gradientUnits="userSpaceOnUse" x1="241.72" x2="241.72" xlink:href="#a" y1="480.444288" y2="2.500288"/><linearGradient id="c" gradientUnits="userSpaceOnUse" x1="176" x2="176" xlink:href="#a" y1="480.444288" y2="2.500288"/><linearGradient id="d" gradientUnits="userSpaceOnUse" x1="344" x2="344" xlink:href="#a" y1="480.444288" y2="2.500288"/><linearGradient id="e" gradientUnits="userSpaceOnUse" x1="192" x2="192" xlink:href="#a" y1="480.444288" y2="2.500288"/><linearGradient id="f" gradientUnits="userSpaceOnUse" x1="224" x2="224" xlink:href="#a" y1="480.444288" y2="2.500288"/><linearGradient id="g" gradientUnits="userSpaceOnUse" x1="256" x2="256" xlink:href="#a" y1="480.444288" y2="2.500288"/><linearGradient id="h" gradientUnits="userSpaceOnUse" x1="288" x2="288" xlink:href="#a" y1="480.444288" y2="2.500288"/><linearGradient id="i" gradientUnits="userSpaceOnUse" x1="320" x2="320" xlink:href="#a" y1="480.444288" y2="2.500288"/><linearGradient id="j" gradientUnits="userSpaceOnUse" x1="352" x2="352" xlink:href="#a" y1="480.444288" y2="2.500288"/><linearGradient id="k" gradientUnits="userSpaceOnUse" x1="216" x2="216" xlink:href="#a" y1="480.444288" y2="2.500288"/><linearGradient id="l" gradientUnits="userSpaceOnUse" x1="328" x2="328" xlink:href="#a" y1="480.444288" y2="2.500288"/><linearGradient id="m" gradientUnits="userSpaceOnUse" x1="281.208" x2="281.208" xlink:href="#a" y1="480.444288" y2="2.500288"/><path d="m479.734375 334.179688c-4.46875-9.613282-12.582031-17.054688-22.546875-20.679688s-20.960938-3.136719-30.5625 1.359375l-103.65625 48.265625c6.875-12.390625 6.679688-27.488281-.503906-39.699219-7.1875-12.210937-20.296875-19.707031-34.464844-19.710937h-120c-21.628906-.015625-41.324219 12.449218-50.566406 32h-21.433594v-24c0-4.417969-3.582031-8-8-8h-80c-4.417969 0-8 3.582031-8 8v160c0 4.417968 3.582031 8 8 8h80c4.417969 0 8-3.582032 8-8v-16h208.910156c5.839844-.007813 11.601563-1.285156 16.898438-3.742188l138.625-64.617187c19.9375-9.421875 28.554687-33.15625 19.300781-53.175781zm-399.734375 129.535156h-64v-144h64zm373.664062-90.847656-138.625 64.601562c-3.171874 1.476562-6.628906 2.242188-10.128906 2.246094h-208.910156v-88h26.800781c3.402344 0 6.433594-2.152344 7.550781-5.367188 5.609376-15.980468 20.714844-26.664062 37.648438-26.632812h120c13.253906 0 24 10.746094 24 24 0 13.257812-10.746094 24-24 24h-72v16h91.800781c5.828125-.007813 11.582031-1.28125 16.871094-3.734375l108.726563-50.625c11.960937-5.609375 26.203124-.453125 31.800781 11.511719 1.472656 3.203124 2.238281 6.683593 2.242187 10.210937-.007812 9.3125-5.367187 17.789063-13.777344 21.789063zm0 0" fill="url(#b)"/><path d="m144 159.714844h64c4.417969 0 8-3.582032 8-8v-48c0-4.417969-3.582031-8-8-8h-64c-4.417969 0-8 3.582031-8 8v48c0 4.417968 3.582031 8 8 8zm32-16v-8h24v8zm24-24h-24v-8h24zm-48-8h8v32h-8zm0 0" fill="url(#c)"/><path d="m328 159.714844c5.628906-.011719 11.148438-1.523438 16-4.375 4.851562 2.851562 10.371094 4.363281 16 4.375 13.488281.058594 25.566406-8.347656 30.195312-21.015625 4.628907-12.671875.816407-26.882813-9.535156-35.535157-10.347656-8.652343-25.011718-9.882812-36.660156-3.078124-11.648438-6.804688-26.3125-5.574219-36.660156 3.078124-10.351563 8.652344-14.164063 22.863282-9.535156 35.535157 4.628906 12.667969 16.707031 21.074219 30.195312 21.015625zm48-32c-.019531 6.320312-3.757812 12.039062-9.539062 14.589844-5.78125 2.554687-12.523438 1.464843-17.203126-2.78125-3.367187-3.03125-5.277343-7.355469-5.257812-11.882813.019531-4.53125 1.972656-8.835937 5.367188-11.835937 2.914062-2.632813 6.703124-4.089844 10.632812-4.089844 8.835938 0 16 7.164062 16 16zm-48-16c1.347656 0 2.695312.167968 4 .503906-.320312.570312-.558594 1.175781-.800781 1.761719-.160157.335937-.328125.664062-.472657 1.007812-.773437 1.78125-1.378906 3.628907-1.816406 5.519531-.078125.359376-.132812.726563-.207031 1.089844-.425781 2.011719-.664063 4.0625-.703125 6.117188.015625 2.050781.234375 4.097656.648438 6.105468.070312.375.128906.742188.207031 1.113282.429687 1.863281 1.027343 3.6875 1.785156 5.445312.167969.394532.359375.800782.542969 1.152344.265625.5625.496094 1.136719.800781 1.679688-1.300781.335937-2.640625.507812-3.984375.503906-8.835938 0-16-7.160156-16-16 0-8.835938 7.164062-16 16-16zm0 0" fill="url(#d)"/><path d="m184 191.714844h16v16h-16zm0 0" fill="url(#e)"/><path d="m216 191.714844h16v16h-16zm0 0" fill="url(#f)"/><path d="m248 191.714844h16v16h-16zm0 0" fill="url(#g)"/><path d="m280 191.714844h16v16h-16zm0 0" fill="url(#h)"/><path d="m312 191.714844h16v16h-16zm0 0" fill="url(#i)"/><path d="m344 191.714844h16v16h-16zm0 0" fill="url(#j)"/><path d="m184 223.714844h64v16h-64zm0 0" fill="url(#k)"/><path d="m296 223.714844h64v16h-64zm0 0" fill="url(#l)"/><path d="m128 271.714844h272c13.253906 0 24-10.742188 24-24v-10.351563l16.664062-4.488281c6.128907-1.664062 11.347657-5.691406 14.511719-11.199219 3.214844-5.492187 4.078125-12.046875 2.398438-18.183593l-49.703125-185.566407c-3.484375-12.75-16.605469-20.292969-29.375-16.898437l-234.023438 62.6875h-16.472656c-13.253906 0-24 10.746094-24 24v160c0 13.257812 10.746094 24 24 24zm308.480469-54.277344-12.480469 3.359375v-80.800781l18.128906 67.6875c1.113282 4.25-1.40625 8.605468-5.648437 9.753906zm-53.824219-200.921875c4.242188-1.132813 8.605469 1.367187 9.777344 5.601563l11.238281 41.976562c-1.210937-.21875-2.441406-.347656-3.671875-.378906h-193.695312zm-262.65625 71.199219c0-4.417969 3.582031-8 8-8h272c4.417969 0 8 3.582031 8 8v160c0 4.417968-3.582031 8-8 8h-272c-4.417969 0-8-3.582032-8-8zm0 0" fill="url(#m)"/></svg>