<?xml version="1.0" encoding="iso-8859-1"?>
<!-- Generator: Adobe Illustrator 19.0.0, SVG Export Plug-In . SVG Version: 6.00 Build 0)  -->
<svg version="1.1" id="Capa_1" xmlns="http://www.w3.org/2000/svg" xmlns:xlink="http://www.w3.org/1999/xlink" x="0px" y="0px"
	 viewBox="0 0 511.997 511.997" style="enable-background:new 0 0 511.997 511.997;" xml:space="preserve">
<path style="fill:#006DF0;" d="M380.025,295.613l-30.158,30.167l0,0l-24.031,24.031l0,0l-30.167,30.158l108.464,108.464
	c19.966,19.966,52.34,19.966,72.307,0l12.05-12.05c19.966-19.966,19.966-52.34,0-72.307L380.025,295.613z"/>
<g>
	<polygon style="fill:#E6E7E8;" points="106.487,82.316 102.823,42.519 36.524,12.438 12.493,36.469 42.574,102.768 82.371,106.432 
		199.288,223.264 223.319,199.233 	"/>
	
		<rect x="299.785" y="286.867" transform="matrix(-0.7071 0.7071 -0.7071 -0.7071 764.7089 316.6331)" style="fill:#E6E7E8;" width="33.984" height="59.651"/>
</g>
<rect x="320.86" y="337.782" transform="matrix(-0.7071 0.7071 -0.7071 -0.7071 815.5977 337.7323)" style="fill:#78B9EB;" width="33.984" height="0.001"/>
<path style="fill:#FFAF46;" d="M348.162,243.12c63.648,17.043,129.061-20.733,146.104-84.382
	c6.255-23.366,5.266-48.088-2.855-70.883l-64.254,64.168l-54.198-18.066l-18.066-54.198l64.168-64.254
	C356.99-6.6,288.757,25.8,266.652,87.872c-8.113,22.787-9.11,47.508-2.855,70.883l-40.478,40.478l-24.031,24.031L23.486,399.067
	c-19.941,19.992-19.941,52.357,0,72.349l12.016,12.016c19.992,19.941,52.357,19.941,72.349,0l175.802-175.802l24.031-24.031
	L348.162,243.12z"/>
<path style="fill:#231F20;" d="M494.513,398.053L386.049,289.589c-3.323-3.323-8.726-3.323-12.05,0l-24.133,24.142l-30.133-30.133
	l31.053-31.019c42.787,9.595,87.518-3.315,118.605-34.24l0,0c34.734-34.999,46.409-86.776,30.039-133.288
	c-0.98-2.753-3.298-4.815-6.144-5.462c-2.855-0.631-5.829,0.222-7.908,2.275l-60.504,60.453l-45.165-15.058l-15.058-45.165
	l60.453-60.504c3.323-3.332,3.315-8.726-0.009-12.05c-0.895-0.895-1.977-1.577-3.179-2.003
	c-66.503-23.69-139.619,11.01-163.31,77.513c-8.121,22.804-9.604,47.449-4.269,71.071l-31.019,31.053L114.693,78.472l-3.409-36.737
	c-0.281-3.042-2.173-5.71-4.96-6.971L40.043,4.683c-3.23-1.474-7.03-0.793-9.544,1.704L6.468,30.419
	c-2.497,2.514-3.179,6.315-1.704,9.544l30.082,66.299c1.261,2.787,3.928,4.687,6.979,4.968l36.737,3.409L187.23,223.264
	L17.435,393.042c-23.247,23.315-23.247,61.049,0,84.365l12.016,12.016c23.315,23.247,61.049,23.247,84.365,0l169.837-169.743
	l30.133,30.124l-24.142,24.15c-3.323,3.323-3.323,8.726,0,12.05l108.464,108.456c23.307,23.264,61.058,23.264,84.365,0l12.05-12.05
	c23.298-23.298,23.298-61.066,0.009-84.356c0,0,0,0-0.009-0.009L494.513,398.053z M88.395,100.407
	c-1.406-1.406-3.264-2.275-5.241-2.463L48.284,94.74L22.719,38.327l15.68-15.688l56.414,25.565l3.213,34.862
	c0.179,1.977,1.048,3.835,2.454,5.241l110.782,110.884l-11.99,11.99L88.395,100.407z M101.8,477.407
	c-16.66,16.626-43.64,16.626-60.299,0l-12.016-12.016c-16.626-16.66-16.626-43.64,0-60.299L269.797,164.78
	c2.156-2.156,2.991-5.292,2.207-8.232c-15.671-59.251,19.651-119.985,78.902-135.657c16.967-4.491,34.751-4.883,51.897-1.167
	l-53.942,54.01c-2.284,2.284-3.076,5.667-2.054,8.726l18.066,54.198c0.852,2.548,2.846,4.542,5.394,5.386l54.198,18.057
	c3.059,1.023,6.425,0.23,8.709-2.045l54.019-53.942c13.157,59.72-24.585,118.801-84.314,131.967
	c-17.35,3.826-35.365,3.417-52.519-1.193c-2.94-0.801-6.084,0.043-8.223,2.207L101.8,477.407z M295.703,307.629l9.681-9.681
	l2.301-2.301l30.167,30.133l-12.016,12.016L295.703,307.629z M482.464,470.393l-12.05,12.016c-16.651,16.609-43.605,16.609-60.257,0
	L307.718,379.978l72.307-72.315l102.439,102.439c16.643,16.643,16.643,43.614,0,60.257V470.393z"/>
<g>
</g>
<g>
</g>
<g>
</g>
<g>
</g>
<g>
</g>
<g>
</g>
<g>
</g>
<g>
</g>
<g>
</g>
<g>
</g>
<g>
</g>
<g>
</g>
<g>
</g>
<g>
</g>
<g>
</g>
</svg>
