<?xml version="1.0" encoding="utf-8"?>
<!-- Generator: Adobe Illustrator 16.0.0, SVG Export Plug-In . SVG Version: 6.00 Build 0)  -->
<!DOCTYPE svg PUBLIC "-//W3C//DTD SVG 1.1//EN" "http://www.w3.org/Graphics/SVG/1.1/DTD/svg11.dtd">
<svg version="1.1" id="Layer_1" xmlns="http://www.w3.org/2000/svg" xmlns:xlink="http://www.w3.org/1999/xlink" x="0px" y="0px"
	 width="1600px" height="1600px" viewBox="0 0 1600 1600" enable-background="new 0 0 1600 1600" xml:space="preserve">
<g>
	<g>
		<linearGradient id="SVGID_1_" gradientUnits="userSpaceOnUse" x1="-4.882813e-004" y1="890.5781" x2="1363.5498" y2="890.5781">
			<stop  offset="0" style="stop-color:#EA433A"/>
			<stop  offset="1" style="stop-color:#FBBF13"/>
		</linearGradient>
		<path fill="url(#SVGID_1_)" d="M1362.507,1318.001c-4.569-33.226-23.815-61.638-52.813-77.947L1032.92,1084.37
			c-42.365-23.831-95.963-16.469-130.337,17.902l-97.19,97.19c-19.91,19.91-51.785,22.391-74.153,5.772
			c-67.149-49.894-132.778-106.771-195.065-169.06c-62.284-62.284-119.162-127.915-169.059-195.064
			c-16.619-22.366-14.138-54.244,5.771-74.153l97.19-97.19c34.375-34.375,41.737-87.972,17.903-130.337L332.299,262.656
			c-16.309-28.997-44.718-48.244-77.946-52.809c-34.815-4.781-69.3,6.997-94.619,32.325L57.225,344.681
			C-15.194,417.1-19,546.749,46.503,709.752c62.659,155.931,181.894,326.53,335.73,480.367
			c153.841,153.844,324.438,273.075,480.368,335.73c77.212,31.028,146.931,46.504,206.637,46.504
			c66.338,0,120.315-19.109,158.432-57.226l102.509-102.509C1355.504,1387.297,1367.285,1352.81,1362.507,1318.001z
			 M1293.525,1375.969l-17.915,17.91l-235.956-128.703c-12.568-6.862-28.31-2.225-35.162,10.344
			c-6.856,12.565-2.226,28.31,10.344,35.162l222.571,121.403l-46.394,46.394c-55.984,55.981-168.644,55.716-309.091-0.719
			c-149.59-60.115-314.033-175.281-463.042-324.29c-149-149.009-264.172-313.456-324.284-463.046
			c-56.438-140.453-56.7-253.109-0.719-309.09l46.384-46.394l24.813,45.487c4.706,8.625,13.597,13.513,22.775,13.513
			c4.19,0,8.447-1.019,12.384-3.169c12.566-6.856,17.2-22.6,10.344-35.166l-32.103-58.869l17.909-17.909
			c11.775-11.769,27.063-18.172,42.885-18.172c2.666,0,5.35,0.184,8.031,0.55c17.016,2.337,31.535,12.128,39.822,26.869
			l155.682,276.774c12.48,22.194,8.628,50.266-9.379,68.269l-46.246,46.25L265.812,456.861
			c-6.853-12.565-22.597-17.199-35.163-10.344c-12.565,6.854-17.2,22.598-10.344,35.163l128.669,235.887l-12.738,12.737
			c-37.949,37.95-42.559,98.878-10.725,141.722c51.4,69.172,109.943,136.734,174.009,200.803
			c64.069,64.069,131.632,122.615,200.803,174.009c42.841,31.838,103.766,27.226,141.722-10.725l12.738-12.737l58.855,32.103
			c3.943,2.153,8.194,3.169,12.385,3.169c9.178,0,18.068-4.888,22.774-13.513c6.856-12.565,2.226-28.309-10.344-35.162
			l-45.472-24.806l46.247-46.247c18.003-18.003,46.078-21.859,68.274-9.378l276.775,155.681
			c14.737,8.291,24.531,22.807,26.868,39.822C1313.704,1343.653,1307.282,1362.213,1293.525,1375.969z"/>
	</g>
</g>
<g>
	<g>
		<linearGradient id="SVGID_2_" gradientUnits="userSpaceOnUse" x1="967.6055" y1="647.9355" x2="1268.251" y2="647.9355">
			<stop  offset="0" style="stop-color:#EA433A"/>
			<stop  offset="1" style="stop-color:#FBBF13"/>
		</linearGradient>
		<path fill="url(#SVGID_2_)" d="M1242.335,691.133h-29.372v-222.89c0-14.313-11.603-25.919-25.918-25.919
			c-14.313,0-25.919,11.604-25.919,25.919v222.89h-135.29l48.281-217.268c3.103-13.973-5.707-27.819-19.682-30.922
			c-13.979-3.109-27.815,5.706-30.922,19.678l-55.29,248.809c-1.706,7.675,0.162,15.706,5.084,21.841
			c4.919,6.131,12.354,9.7,20.216,9.7h167.6v84.662c0,14.313,11.604,25.919,25.919,25.919c14.312,0,25.918-11.604,25.918-25.919
			v-84.665h29.372c14.313,0,25.919-11.604,25.919-25.919C1268.251,702.736,1256.647,691.133,1242.335,691.133z"/>
	</g>
</g>
<g>
	<g>
		<linearGradient id="SVGID_3_" gradientUnits="userSpaceOnUse" x1="663.5078" y1="647.9365" x2="936.5107" y2="647.9365">
			<stop  offset="0" style="stop-color:#EA433A"/>
			<stop  offset="1" style="stop-color:#FBBF13"/>
		</linearGradient>
		<path fill="url(#SVGID_3_)" d="M910.592,801.714H719.846c11.275-29.69,43.181-48.571,89.199-73.684
			c56.791-30.991,127.466-69.56,127.466-157.106c0-70.909-61.234-128.6-136.5-128.6c-75.265,0-136.499,57.688-136.499,128.6
			c0,14.313,11.603,25.919,25.918,25.919c14.313,0,25.919-11.604,25.919-25.919c0-42.328,37.981-76.766,84.663-76.766
			c46.681,0,84.662,34.435,84.662,76.766c-0.004,52.963-37.953,77.494-100.463,111.604
			c-56.574,30.874-120.703,65.871-120.703,145.103c0,14.313,11.604,25.919,25.919,25.919h221.162
			c14.313,0,25.919-11.604,25.919-25.919S924.904,801.714,910.592,801.714z"/>
	</g>
</g>
<g>
	<g>
		<linearGradient id="SVGID_4_" gradientUnits="userSpaceOnUse" x1="442.3423" y1="606.4692" x2="1599.9971" y2="606.4692">
			<stop  offset="0" style="stop-color:#EA433A"/>
			<stop  offset="1" style="stop-color:#FBBF13"/>
		</linearGradient>
		<path fill="url(#SVGID_4_)" d="M1458.416,1106.316l-50.475,10.094c122.655-119.125,192.056-282.053,192.056-454.652
			c0-349.649-284.462-634.114-634.114-634.114c-206.068,0-400.019,100.719-518.812,269.425c-8.241,11.703-5.435,27.872,6.269,36.115
			c11.7,8.241,27.869,5.435,36.112-6.269C598.555,171.978,776.658,79.478,965.886,79.478c321.068,0,582.28,261.209,582.28,582.28
			c0,160.81-65.65,312.446-181.385,422.24l11.557-57.769c2.807-14.038-6.297-27.69-20.334-30.497
			c-14.034-2.81-27.69,6.297-30.497,20.334l-27.644,138.229c-1.7,8.496,0.959,17.281,7.088,23.409
			c4.906,4.906,11.521,7.591,18.324,7.591c1.69,0,3.391-0.166,5.085-0.504l138.228-27.646c14.037-2.81,23.141-16.463,20.334-30.497
			C1486.104,1112.613,1472.447,1103.517,1458.416,1106.316z"/>
	</g>
</g>
<g>
	<g>
		<linearGradient id="SVGID_5_" gradientUnits="userSpaceOnUse" x1="939.9639" y1="191.7886" x2="991.8008" y2="191.7886">
			<stop  offset="0" style="stop-color:#EA433A"/>
			<stop  offset="1" style="stop-color:#FBBF13"/>
		</linearGradient>
		<path fill="url(#SVGID_5_)" d="M965.883,138.225c-14.313,0-25.919,11.604-25.919,25.919v55.291
			c0,14.313,11.603,25.918,25.919,25.918c14.313,0,25.918-11.603,25.918-25.918v-55.291
			C991.798,149.831,980.198,138.225,965.883,138.225z"/>
	</g>
</g>
<g>
	<g>
		<linearGradient id="SVGID_6_" gradientUnits="userSpaceOnUse" x1="1382.2881" y1="661.7612" x2="1489.416" y2="661.7612">
			<stop  offset="0" style="stop-color:#EA433A"/>
			<stop  offset="1" style="stop-color:#FBBF13"/>
		</linearGradient>
		<path fill="url(#SVGID_6_)" d="M1463.497,635.843h-55.29c-14.313,0-25.919,11.603-25.919,25.919
			c0,14.313,11.603,25.918,25.919,25.918h55.29c14.313,0,25.919-11.603,25.919-25.918
			C1489.416,647.445,1477.81,635.843,1463.497,635.843z"/>
	</g>
</g>
<g>
	<g>
		<linearGradient id="SVGID_7_" gradientUnits="userSpaceOnUse" x1="509.0171" y1="426.7725" x2="608.7378" y2="426.7725">
			<stop  offset="0" style="stop-color:#EA433A"/>
			<stop  offset="1" style="stop-color:#FBBF13"/>
		</linearGradient>
		<path fill="url(#SVGID_7_)" d="M595.777,418.152l-47.882-27.644c-12.399-7.16-28.246-2.91-35.402,9.484
			c-7.156,12.396-2.91,28.247,9.484,35.403l47.881,27.644c4.081,2.356,8.537,3.475,12.935,3.475c8.956,0,17.668-4.649,22.469-12.962
			C612.418,441.158,608.171,425.309,595.777,418.152z"/>
	</g>
</g>
<g>
	<g>
		<linearGradient id="SVGID_8_" gradientUnits="userSpaceOnUse" x1="1323.0264" y1="896.7402" x2="1422.751" y2="896.7402">
			<stop  offset="0" style="stop-color:#EA433A"/>
			<stop  offset="1" style="stop-color:#FBBF13"/>
		</linearGradient>
		<path fill="url(#SVGID_8_)" d="M1409.788,888.123l-47.882-27.646c-12.396-7.159-28.246-2.909-35.402,9.484
			s-2.913,28.247,9.484,35.403l47.881,27.644c4.081,2.356,8.537,3.475,12.935,3.475c8.956,0,17.669-4.649,22.469-12.962
			C1426.432,911.13,1422.185,895.279,1409.788,888.123z"/>
	</g>
</g>
<g>
	<g>
		<linearGradient id="SVGID_9_" gradientUnits="userSpaceOnUse" x1="1161.127" y1="254.751" x2="1240.6152" y2="254.751">
			<stop  offset="0" style="stop-color:#EA433A"/>
			<stop  offset="1" style="stop-color:#FBBF13"/>
		</linearGradient>
		<path fill="url(#SVGID_9_)" d="M1227.65,208.368c-12.396-7.159-28.246-2.909-35.402,9.484l-27.645,47.881
			c-7.156,12.397-2.909,28.247,9.484,35.403c4.082,2.356,8.535,3.475,12.935,3.475c8.956,0,17.669-4.65,22.469-12.962l27.647-47.881
			C1244.295,231.378,1240.048,215.524,1227.65,208.368z"/>
	</g>
</g>
<g>
	<g>
		<linearGradient id="SVGID_10_" gradientUnits="userSpaceOnUse" x1="691.1538" y1="1068.7617" x2="770.6401" y2="1068.7617">
			<stop  offset="0" style="stop-color:#EA433A"/>
			<stop  offset="1" style="stop-color:#FBBF13"/>
		</linearGradient>
		<path fill="url(#SVGID_10_)" d="M757.677,1022.379c-12.397-7.159-28.244-2.909-35.403,9.484l-27.644,47.882
			c-7.156,12.396-2.909,28.246,9.484,35.402c4.081,2.356,8.538,3.476,12.935,3.476c8.956,0,17.669-4.65,22.469-12.963l27.646-47.881
			C774.32,1045.386,770.073,1029.535,757.677,1022.379z"/>
	</g>
</g>
<g>
	<g>
		<linearGradient id="SVGID_11_" gradientUnits="userSpaceOnUse" x1="1323.0283" y1="426.7754" x2="1422.752" y2="426.7754">
			<stop  offset="0" style="stop-color:#EA433A"/>
			<stop  offset="1" style="stop-color:#FBBF13"/>
		</linearGradient>
		<path fill="url(#SVGID_11_)" d="M1419.275,399.993c-7.156-12.397-23.013-16.644-35.403-9.484l-47.881,27.646
			c-12.396,7.156-16.644,23.007-9.484,35.403c4.8,8.315,13.513,12.962,22.469,12.962c4.396,0,8.854-1.118,12.935-3.475
			l47.881-27.644C1422.185,428.24,1426.432,412.387,1419.275,399.993z"/>
	</g>
</g>
<g>
	<g>
		<linearGradient id="SVGID_12_" gradientUnits="userSpaceOnUse" x1="509.0146" y1="896.7461" x2="608.7378" y2="896.7461">
			<stop  offset="0" style="stop-color:#EA433A"/>
			<stop  offset="1" style="stop-color:#FBBF13"/>
		</linearGradient>
		<path fill="url(#SVGID_12_)" d="M605.262,869.964c-7.156-12.396-23.01-16.646-35.403-9.484l-47.881,27.646
			c-12.397,7.156-16.645,23.007-9.484,35.403c4.8,8.315,13.512,12.963,22.468,12.963c4.397,0,8.854-1.119,12.935-3.476
			l47.882-27.644C608.171,898.211,612.418,882.357,605.262,869.964z"/>
	</g>
</g>
<g>
	<g>
		<linearGradient id="SVGID_13_" gradientUnits="userSpaceOnUse" x1="691.1548" y1="254.7549" x2="770.6401" y2="254.7549">
			<stop  offset="0" style="stop-color:#EA433A"/>
			<stop  offset="1" style="stop-color:#FBBF13"/>
		</linearGradient>
		<path fill="url(#SVGID_13_)" d="M767.164,265.737l-27.644-47.881c-7.156-12.4-23.01-16.647-35.403-9.484
			c-12.396,7.156-16.644,23.009-9.484,35.403l27.647,47.881c4.803,8.315,13.515,12.962,22.468,12.962
			c4.397,0,8.854-1.119,12.935-3.475C770.073,293.984,774.32,278.131,767.164,265.737z"/>
	</g>
</g>
<g>
	<g>
		<linearGradient id="SVGID_14_" gradientUnits="userSpaceOnUse" x1="1161.125" y1="1068.7637" x2="1240.6113" y2="1068.7637">
			<stop  offset="0" style="stop-color:#EA433A"/>
			<stop  offset="1" style="stop-color:#FBBF13"/>
		</linearGradient>
		<path fill="url(#SVGID_14_)" d="M1237.135,1079.745l-27.644-47.882c-7.156-12.396-23.009-16.644-35.403-9.484
			c-12.396,7.156-16.644,23.007-9.484,35.403l27.645,47.882c4.8,8.315,13.512,12.962,22.469,12.962
			c4.396,0,8.853-1.118,12.934-3.475C1240.045,1107.992,1244.291,1092.142,1237.135,1079.745z"/>
	</g>
</g>
</svg>
