<svg height="480pt" viewBox="0 0 480 480" width="480pt" xmlns="http://www.w3.org/2000/svg" xmlns:xlink="http://www.w3.org/1999/xlink"><linearGradient id="a"><stop offset="0" stop-color="#e93e3a"/><stop offset=".35" stop-color="#ed683c"/><stop offset=".7" stop-color="#f3903f"/><stop offset="1" stop-color="#fdc70c"/></linearGradient><linearGradient id="b" gradientUnits="userSpaceOnUse" x1="104" x2="104" xlink:href="#a" y1="481.296" y2="-21.168"/><linearGradient id="c" gradientUnits="userSpaceOnUse" x1="152" x2="152" xlink:href="#a" y1="481.296" y2="-21.168"/><linearGradient id="d" gradientUnits="userSpaceOnUse" x1="136" x2="136" xlink:href="#a" y1="481.296" y2="-21.168"/><linearGradient id="e" gradientUnits="userSpaceOnUse" x1="128" x2="128" xlink:href="#a" y1="481.296" y2="-21.168"/><linearGradient id="f" gradientUnits="userSpaceOnUse" x1="272" x2="272" xlink:href="#a" y1="481.296" y2="-21.168"/><linearGradient id="g" gradientUnits="userSpaceOnUse" x1="232" x2="232" xlink:href="#a" y1="481.296" y2="-21.168"/><linearGradient id="h" gradientUnits="userSpaceOnUse" x1="240" x2="240" xlink:href="#a" y1="481.296" y2="-21.168"/><linearGradient id="i" gradientUnits="userSpaceOnUse" x1="320" x2="320" xlink:href="#a" y1="481.296" y2="-21.168"/><path d="m96 80h16v16h-16zm0 0" fill="url(#b)"/><path d="m128 80h48v16h-48zm0 0" fill="url(#c)"/><path d="m96 112h80v16h-80zm0 0" fill="url(#d)"/><path d="m96 160h64v16h-64zm0 0" fill="url(#e)"/><path d="m176 160h192v16h-192zm0 0" fill="url(#f)"/><path d="m96 200h272v16h-272zm0 0" fill="url(#g)"/><path d="m96 240h112v16h-112zm0 0" fill="url(#c)"/><path d="m224 240h32v16h-32zm0 0" fill="url(#h)"/><path d="m272 240h96v16h-96zm0 0" fill="url(#i)"/><path d="m440 288h-24v-168c-.105469-.863281-.277344-1.722656-.511719-2.558594-.089843-.257812-.152343-.503906-.265625-.753906-.386718-.871094-.925781-1.664062-1.597656-2.34375l-112-112c-.695312-.675781-1.507812-1.21875-2.402344-1.601562-.230468-.101563-.453125-.167969-.6875-.246094-.832031-.230469-1.679687-.394532-2.535156-.496094h-208c-22.082031.0273438-39.972656 17.917969-40 40v8h-8c-22.082031.027344-39.9726562 17.917969-40 40v352c.0273438 22.082031 17.917969 39.972656 40 40h288c22.082031-.027344 39.972656-17.917969 40-40v-8h8c22.082031-.027344 39.972656-17.917969 40-40v-8h24c22.082031-.027344 39.972656-17.917969 40-40v-16c-.027344-22.082031-17.917969-39.972656-40-40zm-244.183594 80 9.597656-24h162.585938v24zm-51.816406-43.054688 35.800781-17.90625 11.582031 28.960938-11.582031 28.960938-35.800781-17.90625zm224 3.054688h-162.585938l-9.597656-24h172.183594zm16-24h16v64h-16zm4.6875-192h-60.6875c-13.253906 0-24-10.746094-24-24v-60.6875zm-36.6875 328c0 13.253906-10.746094 24-24 24h-288c-13.253906 0-24-10.746094-24-24v-352c0-13.253906 10.746094-24 24-24h8v328c.027344 22.082031 17.917969 39.972656 40 40h264zm24-24h-288c-13.253906 0-24-10.746094-24-24v-352c0-13.253906 10.746094-24 24-24h200v72c.027344 22.082031 17.917969 39.972656 40 40h72v160h-216c-1.238281-.011719-2.460938.261719-3.574219.800781l-46.3125 23.199219h-30.113281c-13.253906 0-24 10.746094-24 24s10.746094 24 24 24h30.113281l46.3125 23.199219c1.113281.539062 2.335938.8125 3.574219.800781h216v8c0 13.253906-10.746094 24-24 24zm-272-72c-4.417969 0-8-3.582031-8-8s3.582031-8 8-8h24v16zm360 0c0 13.253906-10.746094 24-24 24h-24v-64h24c13.253906 0 24 10.746094 24 24zm0 0" fill="url(#h)"/></svg>