<svg height="480pt" viewBox="0 0 480 480" width="480pt" xmlns="http://www.w3.org/2000/svg" xmlns:xlink="http://www.w3.org/1999/xlink"><linearGradient id="a"><stop offset="0" stop-color="#fff200"/><stop offset="1" stop-color="#cd118c"/></linearGradient><linearGradient id="b" gradientUnits="userSpaceOnUse" x1="-20.52" x2="459.48" xlink:href="#a" y1="483.152" y2="35.152"/><linearGradient id="c" gradientUnits="userSpaceOnUse" x1="-10.328" x2="469.672" xlink:href="#a" y1="494.072" y2="46.072"/><path d="m240 0c-132.546875 0-240 107.453125-240 240s107.453125 240 240 240 240-107.453125 240-240c-.148438-132.484375-107.515625-239.851562-240-240zm0 464c-123.710938 0-224-100.289062-224-224s100.289062-224 224-224 224 100.289062 224 224c-.140625 123.652344-100.347656 223.859375-224 224zm0 0" fill="url(#b)"/><path d="m341.015625 151.351562c8.453125-14.390624 4.425781-32.855468-9.246094-42.425781-13.671875-9.566406-32.402343-7.019531-43.027343 5.851563-39.214844-10.886719-81.042969 4.085937-104.4375 37.390625l-48.375 69.097656c-21.449219-6.402344-35.609376-4.945313-42.082032 4.292969-15.75 22.511718 31.417969 70.824218 81.921875 106.195312 4.542969 3.199219 9.300781 6.335938 14.132813 9.460938-3.832032 9.816406-2.566406 20.894531 3.378906 29.59375 5.945312 8.703125 15.804688 13.90625 26.34375 13.902344 10.441406.019531 20.234375-5.054688 26.238281-13.597657 12.070313 5.417969 25.019531 8.625 38.226563 9.460938 7.445312.722656 14.757812-2.347657 19.460937-8.167969 6.480469-9.238281 2.984375-23.023438-10.398437-41l48.449218-69.109375c23.359376-33.359375 23.132813-77.828125-.570312-110.945313zm-130.527344 214.480469c-5.101562-3.566406-7.675781-9.765625-6.59375-15.894531 9.265625 5.488281 18.210938 10.308594 26.753907 14.398438-5.523438 5.199218-13.929688 5.820312-20.160157 1.496093zm117.992188-112.703125-51.769531 73.917969c-2.039063 2.917969-1.910157 6.828125.320312 9.601563 14.082031 17.496093 14.152344 25.519531 13.417969 26.566406-1.089844 1.601562-12.511719 4.730468-45.023438-9.65625-14.078125-6.335938-27.691406-13.644532-40.753906-21.871094-6.808594-4.253906-13.441406-8.640625-19.71875-13.039062-60.527344-42.402344-82.097656-78.023438-77.976563-83.894532.800782-1.113281 8.101563-3.800781 29.597657 3.503906 3.371093 1.148438 7.097656-.070312 9.136719-2.984374l51.761718-73.921876c20.589844-29.335937 58.164063-41.425781 92-29.597656 3.785156 1.332032 7.972656-.34375 9.792969-3.921875.324219-.648437.695313-1.269531 1.109375-1.863281 5.132812-7.050781 14.96875-8.695312 22.113281-3.691406s8.964844 14.808594 4.097657 22.042968c-.40625.585938-.855469 1.140626-1.347657 1.65625-2.761719 2.933594-2.910156 7.46875-.34375 10.574219 22.757813 27.726563 24.25 67.214844 3.648438 96.578125zm0 0" fill="url(#c)"/></svg>